<svg viewBox="0 0 200 60" xmlns="http://www.w3.org/2000/svg">
  <!-- Letter A -->
  <path d="M 15 50 L 25 20 L 35 50 M 20 40 L 30 40" stroke="#2c5282" stroke-width="3" fill="none" stroke-linecap="round" stroke-linejoin="round"/>
  
  <!-- Letter U -->
  <path d="M 40 20 L 40 40 Q 40 50 50 50 Q 60 50 60 40 L 60 20" stroke="#2c5282" stroke-width="3" fill="none" stroke-linecap="round"/>
  
  <!-- Letter T -->
  <line x1="67" y1="20" x2="83" y2="20" stroke="#2c5282" stroke-width="3" stroke-linecap="round"/>
  <line x1="75" y1="20" x2="75" y2="50" stroke="#2c5282" stroke-width="3" stroke-linecap="round"/>
  
  <!-- Letter O -->
  <ellipse cx="100" cy="35" rx="10" ry="15" stroke="#2c5282" stroke-width="3" fill="none"/>
  
  <!-- Letter P -->
  <path d="M 115 50 L 115 20 L 125 20 Q 132 20 132 27.5 Q 132 35 125 35 L 115 35" stroke="#2c5282" stroke-width="3" fill="none" stroke-linecap="round" stroke-linejoin="round"/>
  
  <!-- Letter S -->
  <path d="M 147 25 Q 142 20 137 22 Q 132 24 135 30 Q 138 36 143 38 Q 148 40 146 45 Q 144 50 139 48" stroke="#2c5282" stroke-width="3" fill="none" stroke-linecap="round"/>
  
  <!-- Letter Y -->
  <path d="M 152 20 L 160 35 M 168 20 L 160 35 L 160 50" stroke="#2c5282" stroke-width="3" fill="none" stroke-linecap="round" stroke-linejoin="round"/>
  
  <!-- Medical cross accent -->
  <g transform="translate(178, 30)">
    <rect x="-2" y="-8" width="4" height="16" fill="#3b82f6" rx="1"/>
    <rect x="-8" y="-2" width="16" height="4" fill="#3b82f6" rx="1"/>
  </g>
</svg>